<?xml version="1.0" encoding="UTF-8"?>
<svg version="1.1" xmlns="http://www.w3.org/2000/svg" width="512" height="512" fill="#FF692D">
<path d="M0 0 C1.02609375 -0.03738281 2.0521875 -0.07476562 3.109375 -0.11328125 C9.38029478 0.73688076 13.03554064 4.8390414 16.875 9.5625 C17.50450562 10.33424561 17.50450562 10.33424561 18.14672852 11.12158203 C22.13484028 16.06091284 25.9284927 21.14829216 29.71508789 26.24267578 C34.32816913 32.448026 39.08635101 38.52934899 43.88671875 44.59033203 C50.07048447 52.40198736 56.21498587 60.24253277 62.27856445 68.14794922 C67.62944381 75.11958259 73.0361333 82.04787386 78.43554688 88.98193359 C81.37513338 92.75767266 84.3124774 96.53515515 87.25 100.3125 C88.4075408 101.80079003 89.56509292 103.28907125 90.72265625 104.77734375 C98.8984375 115.2890625 107.07421875 125.80078125 115.25 136.3125 C120.39708129 134.60992941 124.62360197 131.5976625 129.09765625 128.6171875 C129.97067886 128.04068451 130.84370148 127.46418152 131.74317932 126.87020874 C134.60253488 124.98033749 137.45753418 123.08399475 140.3125 121.1875 C142.28476372 119.88213975 144.2572593 118.57712977 146.22998047 117.27246094 C160.68052561 107.70876966 175.10423623 98.1041187 189.50415039 88.46435547 C190.22021957 87.9855191 190.93628876 87.50668274 191.67405701 87.01333618 C193.00281826 86.12466356 194.3309545 85.23505539 195.65834045 84.34432983 C202.05300631 80.06930566 206.55147413 79.59706108 214.25 80.3125 C219.13949139 82.582621 222.01263748 85.40751294 224.25 90.3125 C225.40432503 100.70688539 222.98878656 110.5417784 220.59741211 120.56030273 C220.20360531 122.25708021 219.81106343 123.95415168 219.41967773 125.65148926 C218.35971012 130.23208814 217.28222602 134.80840158 216.20142817 139.38412356 C215.06392456 144.21363946 213.94287054 149.04697213 212.81996155 153.87989807 C210.68649024 163.0510443 208.53846444 172.2187162 206.38510662 181.38521105 C203.9620472 191.70287344 201.55503806 202.02425666 199.14952075 212.34602058 C196.20359082 224.98558434 193.25468536 237.62444772 190.29417419 250.26060486 C190.08522654 251.15272444 189.87627888 252.04484403 189.66099948 252.96399754 C188.64732929 257.29050221 187.63172428 261.61653675 186.61222744 265.94167233 C184.95022397 272.99968245 183.29597303 280.05817286 181.72233027 287.13649625 C181.09794811 289.94468509 180.46549363 292.751032 179.83291733 295.55738461 C179.41233854 297.4420138 179.00522554 299.32963258 178.59863949 301.21732998 C176.90545566 308.7203977 175.17181535 315.08068677 168.32213026 319.47431427 C163.51675506 321.4181095 158.06371707 320.85625237 152.96484375 320.82043457 C151.59450111 320.82504529 150.22416342 320.83139937 148.85383606 320.83934355 C145.09351843 320.85603679 141.33360703 320.84779076 137.57328796 320.83539867 C133.51595308 320.82635041 129.45868818 320.84031679 125.40136719 320.85131836 C117.4551728 320.86911058 109.50912948 320.86526049 101.56292915 320.8536678 C95.10525395 320.84463651 88.64762111 320.84340815 82.18994141 320.84776306 C81.27106675 320.84837599 80.3521921 320.84898893 79.40547276 320.84962043 C77.53883233 320.85089933 75.67219193 320.85219618 73.80555153 320.8535108 C56.29952232 320.86491865 38.79357688 320.85179967 21.28756142 320.83030933 C6.26458232 320.81243816 -8.75827314 320.81554221 -23.78125 320.83398438 C-41.22437069 320.85538745 -58.66741794 320.86382 -76.11054993 320.85153532 C-77.97034708 320.85026112 -79.83014424 320.84900363 -81.68994141 320.84776306 C-82.60501182 320.84714596 -83.52008223 320.84652886 -84.46288204 320.84589306 C-90.9132609 320.84243847 -97.3635932 320.84827084 -103.81396484 320.85768127 C-111.67418314 320.86889639 -119.53424163 320.86587151 -127.3944416 320.8445583 C-131.40534384 320.83404126 -135.41597959 320.82993703 -139.42687988 320.84315491 C-143.09838022 320.85507136 -146.76936698 320.84852917 -150.44082069 320.8272447 C-152.3985512 320.82065762 -154.35631733 320.83372151 -156.31401062 320.84747362 C-167.1674918 320.75027323 -167.1674918 320.75027323 -171.75 316.3125 C-175.13570335 312.10335812 -176.53756552 308.3117738 -177.74043274 303.07997131 C-177.90633712 302.37392854 -178.07224151 301.66788576 -178.2431733 300.94044775 C-178.79280309 298.58794318 -179.32469826 296.23179476 -179.85668945 293.87524414 C-180.24879557 292.18059092 -180.64199239 290.48618975 -181.03619385 288.79202271 C-182.10332232 284.19171717 -183.15509653 279.58802211 -184.20414758 274.98356557 C-185.31177162 270.13401428 -186.43342572 265.28770969 -187.55351257 260.44102478 C-189.68000348 251.22978599 -191.79372409 242.01566526 -193.90296954 232.80046409 C-196.27576804 222.43679408 -198.66322979 212.07652122 -201.05177367 201.71647084 C-203.97594087 189.03127707 -206.8962056 176.34518391 -209.8084259 163.65724182 C-210.01430173 162.7603353 -210.22017756 161.86342878 -210.43229204 160.93934327 C-211.4326307 156.57878546 -212.43055481 152.21769639 -213.42372608 147.85550022 C-213.8025066 146.19240307 -214.18133428 144.52931665 -214.56021118 142.86624146 C-214.74356551 142.06127202 -214.92691984 141.25630259 -215.11583036 140.42694014 C-216.18000807 135.76781451 -217.26553754 131.11439217 -218.37293345 126.46535188 C-219.04788554 123.6271293 -219.71325517 120.78670471 -220.37744367 117.94594657 C-220.82413333 116.05279585 -221.2846198 114.16291642 -221.7457552 112.27323246 C-225.82046085 94.77195413 -225.82046085 94.77195413 -222.125 86.8125 C-217.77843158 82.23716482 -214.71234038 80.06959459 -208.328125 79.796875 C-200.68550243 79.91787551 -195.41689764 83.06005346 -189 86.9375 C-187.81924031 87.62532138 -186.63708109 88.31074522 -185.45361328 88.99389648 C-182.44421505 90.73850503 -179.45275798 92.5115733 -176.46520996 94.29327393 C-173.83318071 95.85729985 -171.1861436 97.39521763 -168.5390625 98.93359375 C-165.57998518 100.65397625 -162.62240709 102.37652274 -159.67089844 104.10986328 C-152.58185356 108.2718413 -145.43319394 112.31551265 -138.25 116.3125 C-125.98082391 123.13969501 -113.85073599 130.19172632 -101.75 137.3125 C-98.21137486 133.0513201 -95.12374878 128.55412267 -92.03515625 123.96484375 C-91.1969207 122.7240657 -91.1969207 122.7240657 -90.3417511 121.45822144 C-88.4960927 118.72387402 -86.65408998 115.98708889 -84.8125 113.25 C-84.17362854 112.30200531 -83.53475708 111.35401062 -82.87652588 110.37728882 C-73.20202044 96.01901335 -63.63323172 81.59378066 -54.125 67.125 C-44.97600877 53.21220486 -35.81100608 39.31041279 -26.53692627 25.4805603 C-25.3569863 23.71879149 -24.17980452 21.95517187 -23.0055542 20.18960571 C-21.38640249 17.75655496 -19.75716338 15.33058457 -18.125 12.90625 C-17.65236725 12.19176193 -17.1797345 11.47727386 -16.69277954 10.74113464 C-12.22777996 4.15671391 -8.19278658 0.19361063 0 0 Z M0.25 45.3125 C-0.98416062 46.74473957 -0.98416062 46.74473957 -2.17895508 48.66918945 C-2.66695587 49.4130188 -3.15495667 50.15684814 -3.65774536 50.92321777 C-4.45557938 52.16198669 -4.45557938 52.16198669 -5.26953125 53.42578125 C-6.11207962 54.71470276 -6.11207962 54.71470276 -6.97164917 56.02966309 C-8.19570691 57.90326555 -9.4167204 59.77885947 -10.63510132 61.65615845 C-13.92137081 66.71811762 -17.23114363 71.76467259 -20.5390625 76.8125 C-21.56228859 78.37554619 -21.56228859 78.37554619 -22.60618591 79.97016907 C-30.62524799 92.20355713 -38.82181217 104.31561286 -47.02880859 116.42333984 C-53.12556283 125.42382445 -59.1761069 134.45028481 -65.140625 143.5390625 C-66.33749089 145.35711741 -67.53450979 147.17507161 -68.73168945 148.99291992 C-70.44369885 151.59283714 -72.15172891 154.19488753 -73.8465271 156.80606079 C-75.38624986 159.17830789 -76.93972168 161.54099915 -78.49609375 163.90234375 C-78.9416864 164.59812531 -79.38727905 165.29390686 -79.84637451 166.01077271 C-83.13123515 170.95322479 -86.47717487 174.5738295 -92.51269531 175.93603516 C-101.30632524 176.06261706 -107.07771602 173.1724569 -114.5 168.6875 C-115.68075969 167.99967862 -116.86291891 167.31425478 -118.04638672 166.63110352 C-121.05578495 164.88649497 -124.04724202 163.1134267 -127.03479004 161.33172607 C-129.66681929 159.76770015 -132.3138564 158.22978237 -134.9609375 156.69140625 C-137.90567891 154.9791285 -140.84923052 153.26511734 -143.78735352 151.54150391 C-151.29455215 147.13773148 -158.84985214 142.82579931 -166.4375 138.5625 C-167.49533691 137.9655835 -168.55317383 137.36866699 -169.64306641 136.75366211 C-170.63097168 136.20073486 -171.61887695 135.64780762 -172.63671875 135.078125 C-173.50514404 134.59118164 -174.37356934 134.10423828 -175.26831055 133.60253906 C-178.11354052 132.07166171 -178.11354052 132.07166171 -182.75 130.3125 C-177.00675276 161.90035983 -168.91419043 193.0162997 -161.75 224.3125 C-54.83 224.3125 52.09 224.3125 162.25 224.3125 C175.69259786 179.70310673 175.69259786 179.70310673 182.25 134.3125 C178.85903476 135.57153081 175.97475101 137.00631241 172.98901367 139.04296875 C171.77570625 139.86522949 171.77570625 139.86522949 170.53788757 140.70410156 C169.67331436 141.29674805 168.80874115 141.88939453 167.91796875 142.5 C167.00856033 143.11713867 166.09915192 143.73427734 165.16218567 144.37011719 C162.25088802 146.34644121 159.34387285 148.32894213 156.4375 150.3125 C134.58761934 165.20468011 134.58761934 165.20468011 125.27734375 171.1953125 C124.34404488 171.81321655 124.34404488 171.81321655 123.39189148 172.44360352 C118.60379033 175.47379406 114.50855817 176.32795985 108.8984375 176.0546875 C102.68770799 174.31421758 98.98005038 170.19901816 95.25 165.1875 C94.28785933 163.92961184 93.32561464 162.67180323 92.36328125 161.4140625 C91.606521 160.41487793 91.606521 160.41487793 90.83447266 159.39550781 C88.06832611 155.75902672 85.24800322 152.1647273 82.4375 148.5625 C81.24310755 147.02633863 80.04910062 145.48987743 78.85546875 143.953125 C75.32207842 139.40487546 71.78627707 134.85850526 68.25 130.3125 C67.08332206 128.81250877 65.9166554 127.31250876 64.75 125.8125 C64.1725 125.07 63.595 124.3275 63 123.5625 C51.91666667 109.3125 40.83333333 95.0625 29.75 80.8125 C29.17161377 80.06887207 28.59322754 79.32524414 27.99731445 78.55908203 C26.83955447 77.07051037 25.68183906 75.58190403 24.52416992 74.09326172 C21.47161009 70.16811145 18.41810465 66.24370143 15.36328125 62.3203125 C14.72712891 61.50304687 14.09097656 60.68578125 13.43554688 59.84375 C12.21708248 58.27842348 10.99834697 56.71330794 9.77929688 55.1484375 C9.22951172 54.44203125 8.67972656 53.735625 8.11328125 53.0078125 C7.63157471 52.38922363 7.14986816 51.77063477 6.65356445 51.13330078 C5.63271227 49.8089808 4.65175189 48.45361686 3.69604492 47.08154297 C3.2188501 46.49775879 2.74165527 45.91397461 2.25 45.3125 C1.59 45.3125 0.93 45.3125 0.25 45.3125 Z M-153.75 256.3125 C-151.79676906 267.05527018 -149.27903973 277.69053313 -146.75 288.3125 C-49.73 288.3125 47.29 288.3125 147.25 288.3125 C151.99054792 272.45531251 151.99054792 272.45531251 154.25 256.3125 C52.61 256.3125 -49.03 256.3125 -153.75 256.3125 Z " transform="translate(255.75,95.6875)"/>
</svg>
